<!-- <svg width="12" height="12" viewBox="0 0 12 12" fill="none" xmlns="http://www.w3.org/2000/svg">
<path d="M0.21967 10.4697C-0.0732233 10.7626 -0.0732233 11.2374 0.21967 11.5303C0.512563 11.8232 0.987437 11.8232 1.28033 11.5303L0.21967 10.4697ZM6.28033 6.53033C6.57322 6.23744 6.57322 5.76256 6.28033 5.46967C5.98744 5.17678 5.51256 5.17678 5.21967 5.46967L6.28033 6.53033ZM5.21967 5.46967C4.92678 5.76256 4.92678 6.23744 5.21967 6.53033C5.51256 6.82322 5.98744 6.82322 6.28033 6.53033L5.21967 5.46967ZM11.2803 1.53033C11.5732 1.23744 11.5732 0.762563 11.2803 0.46967C10.9874 0.176777 10.5126 0.176777 10.2197 0.46967L11.2803 1.53033ZM6.28033 5.46967C5.98744 5.17678 5.51256 5.17678 5.21967 5.46967C4.92678 5.76256 4.92678 6.23744 5.21967 6.53033L6.28033 5.46967ZM10.2197 11.5303C10.5126 11.8232 10.9874 11.8232 11.2803 11.5303C11.5732 11.2374 11.5732 10.7626 11.2803 10.4697L10.2197 11.5303ZM5.21967 6.53033C5.51256 6.82322 5.98744 6.82322 6.28033 6.53033C6.57322 6.23744 6.57322 5.76256 6.28033 5.46967L5.21967 6.53033ZM1.28033 0.46967C0.987437 0.176777 0.512563 0.176777 0.21967 0.46967C-0.0732233 0.762563 -0.0732233 1.23744 0.21967 1.53033L1.28033 0.46967ZM1.28033 11.5303L6.28033 6.53033L5.21967 5.46967L0.21967 10.4697L1.28033 11.5303ZM6.28033 6.53033L11.2803 1.53033L10.2197 0.46967L5.21967 5.46967L6.28033 6.53033ZM5.21967 6.53033L10.2197 11.5303L11.2803 10.4697L6.28033 5.46967L5.21967 6.53033ZM6.28033 5.46967L1.28033 0.46967L0.21967 1.53033L5.21967 6.53033L6.28033 5.46967Z" fill="#213847"/>
</svg> -->


<svg width="12" height="12" marginTop="10" viewBox="0 0 22 22" fill="none" xmlns="http://www.w3.org/2000/svg">
<path d="M3.22387 1.03161L10.9999 8.80761L18.7439 1.06361C18.8796 0.919157 19.0431 0.803601 19.2245 0.723869C19.406 0.644137 19.6017 0.601872 19.7999 0.599609C20.2242 0.599609 20.6312 0.76818 20.9312 1.06824C21.2313 1.3683 21.3999 1.77526 21.3999 2.19961C21.4036 2.39577 21.3672 2.59063 21.2929 2.77222C21.2186 2.95381 21.108 3.11831 20.9679 3.25561L13.1439 10.9996L20.9679 18.8236C21.2316 19.0816 21.3862 19.4309 21.3999 19.7996C21.3999 20.224 21.2313 20.6309 20.9312 20.931C20.6312 21.231 20.2242 21.3996 19.7999 21.3996C19.596 21.4081 19.3925 21.374 19.2025 21.2997C19.0124 21.2253 18.8399 21.1122 18.6959 20.9676L10.9999 13.1916L3.23987 20.9516C3.10468 21.0912 2.94317 21.2027 2.76467 21.2796C2.58617 21.3565 2.39421 21.3973 2.19987 21.3996C1.77552 21.3996 1.36856 21.231 1.0685 20.931C0.768441 20.6309 0.59987 20.224 0.59987 19.7996C0.596139 19.6034 0.632535 19.4086 0.706822 19.227C0.781109 19.0454 0.891721 18.8809 1.03187 18.7436L8.85587 10.9996L1.03187 3.17561C0.768166 2.91762 0.613533 2.56827 0.59987 2.19961C0.59987 1.77526 0.768441 1.3683 1.0685 1.06824C1.36856 0.76818 1.77552 0.599609 2.19987 0.599609C2.58387 0.604409 2.95187 0.759609 3.22387 1.03161Z" fill="#CBCBCB"/>
</svg>