<svg width="12" height="13" viewBox="0 0 12 13" fill="none" xmlns="http://www.w3.org/2000/svg">
<g clip-path="url(#clip0_680_2065)">
<path d="M6 11.5C3.2385 11.5 1 9.2615 1 6.5C1 3.7385 3.2385 1.5 6 1.5C8.7615 1.5 11 3.7385 11 6.5C11 9.2615 8.7615 11.5 6 11.5ZM6 8C5.72386 8 5.5 8.22386 5.5 8.5C5.5 8.77614 5.72386 9 6 9C6.27614 9 6.5 8.77614 6.5 8.5C6.5 8.22386 6.27614 8 6 8ZM6 4C5.72386 4 5.5 4.22386 5.5 4.5V6.5C5.5 6.77614 5.72386 7 6 7C6.27614 7 6.5 6.77614 6.5 6.5V4.5C6.5 4.22386 6.27614 4 6 4Z" fill="#EC1919"/>
</g>
<defs>
<clipPath id="clip0_680_2065">
<rect width="12" height="12" fill="white" transform="translate(0 0.5)"/>
</clipPath>
</defs>
</svg>
